<?xml version="1.0" standalone="no"?>
<!DOCTYPE svg PUBLIC "-//W3C//DTD SVG 20010904//EN"
 "http://www.w3.org/TR/2001/REC-SVG-20010904/DTD/svg10.dtd">
<svg version="1.0" xmlns="http://www.w3.org/2000/svg"
 width="1081.000000pt" height="288.170242pt" viewBox="0 0 1081.000000 288.170242"
 preserveAspectRatio="xMidYMid meet">
<metadata>
Created by potrace 1.12, written by Peter Selinger 2001-2015
</metadata>
<g transform="translate(0.000000,308.126747) scale(0.100000,-0.100000)"
fill="#000000" stroke="none">
<path d="M1207 3070 c-8 -33 -35 -424 -47 -680 -50 -994 -64 -1140 -123 -1260
-25 -51 -38 -66 -61 -72 -16 -4 -42 -19 -57 -34 -33 -32 -96 -45 -149 -31 -24
6 -46 5 -68 -3 -30 -11 -36 -10 -56 9 -27 26 -82 28 -115 4 -31 -21 -137 -24
-168 -5 -16 10 -39 12 -81 7 -43 -5 -68 -2 -100 10 -41 17 -42 17 -86 -9 -25
-14 -51 -26 -59 -26 -8 0 -18 -7 -21 -16 -8 -21 -8 -21 14 -27 12 -3 41 6 67
20 43 22 51 24 85 12 22 -7 60 -10 91 -6 37 3 61 1 73 -7 29 -20 173 -15 207
7 33 21 33 21 65 -1 39 -28 74 -34 92 -17 12 11 24 12 51 5 29 -8 66 -8 126
-1 6 0 30 17 53 36 23 19 50 35 59 35 39 0 82 72 112 188 30 120 41 264 100
1372 10 201 19 281 19 178 0 -117 31 -1087 40 -1273 19 -355 41 -493 85 -535
20 -19 26 -20 46 -9 13 6 53 11 91 10 66 -2 68 -1 106 37 l38 38 26 -19 c19
-14 34 -17 58 -12 44 10 62 54 96 235 30 159 32 159 58 10 20 -122 37 -178 71
-236 25 -43 29 -46 59 -40 44 9 85 5 182 -15 47 -11 54 -10 82 11 26 19 46 23
126 27 82 3 101 1 136 -17 73 -37 89 -10 114 200 19 153 25 244 83 1195 9 148
18 98 27 -142 28 -791 50 -1086 84 -1145 20 -34 23 -34 49 -5 24 25 49 157 78
402 29 244 28 244 58 -5 15 -124 27 -251 27 -282 0 -62 12 -100 44 -135 26
-30 50 -29 75 2 24 31 34 78 67 300 25 170 33 209 40 190 2 -5 17 -107 34
-225 31 -214 45 -284 63 -307 16 -22 55 -15 74 12 10 14 26 36 35 48 l17 22
48 -52 c73 -78 87 -83 242 -77 121 5 135 4 167 -16 21 -12 51 -20 72 -19 21 1
51 -4 69 -12 28 -11 37 -11 68 4 20 9 48 17 63 17 15 0 41 9 58 19 31 19 32
19 74 -5 48 -27 77 -30 105 -10 11 7 34 17 52 20 17 4 37 13 43 21 27 33 50
170 85 520 26 259 42 385 44 350 1 -25 27 -344 41 -520 18 -208 34 -288 69
-328 13 -16 24 -17 76 -12 98 12 104 18 141 154 13 47 28 89 34 95 5 5 10 7
10 4 0 -3 11 -50 25 -105 47 -179 68 -204 131 -156 30 22 40 24 81 18 27 -3
70 -13 97 -21 72 -21 89 -18 136 21 47 39 50 39 119 -20 24 -19 47 -35 51 -35
13 0 68 67 89 108 10 20 32 83 49 139 29 95 47 143 57 143 2 0 20 -51 40 -112
46 -137 77 -199 114 -221 25 -14 30 -15 49 -1 19 13 26 12 78 -16 69 -37 103
-38 134 -5 17 18 34 25 60 25 51 0 125 51 162 112 35 57 41 55 87 -27 34 -59
54 -70 122 -66 33 2 59 -4 90 -20 62 -33 144 -30 289 10 152 41 167 41 213 -8
21 -22 54 -45 74 -52 34 -11 131 -8 153 6 16 10 11 100 -15 265 -37 229 -32
383 12 397 19 7 31 -28 42 -124 13 -117 29 -155 74 -176 46 -22 133 -23 141
-1 11 30 6 79 -19 169 -14 49 -25 102 -25 118 0 56 62 43 98 -22 35 -61 44
-145 32 -283 -24 -264 -24 -293 -6 -311 38 -38 176 -5 233 55 63 67 91 145
142 402 31 155 46 200 61 191 16 -10 29 -74 45 -240 24 -243 57 -360 117 -410
26 -22 39 -25 104 -25 100 0 125 14 163 92 44 90 47 146 21 367 -13 105 -20
194 -17 197 9 9 281 18 311 10 39 -10 86 -88 86 -144 0 -37 -6 -50 -34 -78
-31 -31 -39 -34 -97 -35 -96 0 -127 -15 -161 -75 -49 -89 -50 -216 -1 -274 43
-52 78 -64 178 -64 110 0 194 28 216 72 11 21 15 91 17 308 l3 280 97 12 c200
25 242 14 242 -63 0 -63 -35 -149 -80 -197 -38 -39 -40 -40 -89 -33 -27 4 -59
4 -70 0 -31 -9 -45 -69 -46 -190 0 -130 14 -168 66 -179 41 -8 477 -8 518 0
54 11 66 41 70 187 3 126 3 129 -28 190 -18 37 -65 100 -116 155 -47 51 -85
99 -85 107 0 8 9 19 21 25 38 21 62 8 96 -50 76 -131 83 -141 120 -156 49 -21
69 -9 123 74 51 79 79 112 95 112 7 0 25 -10 40 -21 l27 -22 -49 -30 c-104
-63 -158 -135 -173 -230 -15 -94 19 -247 67 -299 29 -32 66 -22 137 37 75 61
65 61 181 1 75 -38 96 -42 253 -50 96 -5 102 -4 102 14 0 11 -1 20 -2 21 -2 0
-61 4 -133 8 -129 8 -131 8 -222 55 -110 57 -124 56 -206 -14 -32 -28 -63 -50
-68 -50 -29 0 -71 134 -71 224 1 102 34 159 130 225 83 56 98 75 84 106 -14
29 -68 65 -99 65 -33 0 -79 -45 -124 -121 -57 -98 -87 -92 -148 29 -48 96 -75
122 -126 122 -53 0 -95 -30 -95 -68 0 -37 24 -73 112 -169 41 -45 85 -103 98
-130 20 -43 22 -59 18 -165 -3 -76 -9 -123 -17 -131 -13 -13 -446 -24 -507
-12 -29 5 -33 11 -44 57 -8 31 -10 77 -6 121 11 120 7 115 86 113 65 -1 71 1
103 32 55 53 90 135 95 218 7 130 -35 148 -284 124 l-134 -14 0 -280 c0 -323
-3 -338 -75 -364 -55 -20 -182 -21 -219 -2 -67 35 -93 124 -62 216 29 85 40
93 136 100 129 10 171 44 178 145 5 68 -21 133 -70 174 -28 23 -37 25 -136 25
-59 0 -144 -3 -189 -7 l-83 -6 0 -36 c0 -20 9 -121 21 -226 26 -222 20 -276
-35 -348 -31 -41 -34 -42 -95 -45 -43 -2 -70 2 -86 12 -47 31 -82 145 -105
341 -35 313 -39 328 -93 323 -46 -4 -63 -44 -98 -224 -54 -283 -96 -376 -186
-416 -25 -11 -64 -23 -86 -26 l-40 -5 6 79 c4 43 12 135 17 204 16 186 -3 290
-65 355 -27 29 -40 35 -73 35 -79 0 -90 -49 -47 -211 34 -131 34 -133 -16
-126 -69 9 -99 56 -99 157 0 56 -17 119 -38 143 -16 18 -58 23 -79 9 -50 -32
-57 -208 -18 -444 14 -84 25 -167 25 -185 0 -29 -4 -33 -34 -39 -55 -10 -91 4
-134 52 -36 39 -46 44 -84 44 -24 0 -112 -16 -195 -37 l-153 -36 -68 26 c-40
16 -87 27 -117 27 -60 0 -67 4 -93 55 -37 69 -55 87 -88 83 -22 -2 -36 -14
-58 -48 -45 -69 -89 -102 -144 -107 -31 -4 -56 -14 -73 -30 l-26 -24 -74 35
c-66 32 -76 34 -95 21 -19 -12 -24 -12 -37 3 -25 29 -53 92 -87 197 -17 55
-39 108 -47 118 -41 44 -73 7 -118 -140 -38 -122 -73 -201 -98 -221 -11 -9
-19 -6 -41 17 -57 60 -130 62 -175 5 -18 -23 -22 -24 -63 -13 -23 6 -74 16
-112 22 -63 10 -72 9 -106 -10 l-38 -20 -11 23 c-6 13 -20 60 -31 105 -11 44
-30 105 -41 134 -20 54 -21 54 -44 39 -25 -16 -39 -48 -74 -169 -12 -38 -25
-76 -30 -84 -5 -7 -30 -17 -57 -22 -41 -8 -51 -7 -61 7 -25 35 -43 163 -68
494 -16 215 -43 458 -52 474 -12 19 -52 -84 -62 -160 -6 -43 -24 -212 -41
-374 -43 -415 -58 -480 -112 -480 -10 0 -29 -7 -41 -15 -20 -13 -27 -12 -72
10 -59 29 -73 30 -95 10 -9 -8 -40 -19 -69 -25 -29 -5 -60 -14 -69 -19 -11 -6
-26 -4 -46 6 -16 8 -42 13 -59 10 -19 -2 -43 3 -63 15 -29 17 -50 19 -177 17
-160 -4 -178 2 -228 75 -49 72 -92 71 -135 -2 l-28 -47 -13 45 c-7 25 -29 155
-49 289 -27 189 -40 251 -55 273 -11 15 -24 28 -27 28 -10 0 -39 -119 -52
-215 -36 -261 -61 -375 -82 -375 -17 0 -38 70 -38 129 0 111 -87 749 -100 734
-7 -8 -30 -170 -56 -393 -19 -165 -53 -386 -63 -413 -18 -47 -42 236 -61 698
-23 586 -31 725 -46 830 -9 61 -18 117 -21 125 -16 40 -49 -283 -78 -765 -44
-721 -52 -825 -77 -958 -12 -65 -22 -76 -47 -53 -14 13 -40 16 -135 15 -106
-1 -120 -4 -152 -25 -20 -14 -41 -21 -47 -17 -14 9 -111 23 -174 26 -64 3 -83
43 -123 257 -20 108 -42 174 -61 185 -17 11 -43 -65 -75 -218 -18 -87 -40
-169 -49 -183 l-16 -25 -33 21 c-46 28 -55 26 -100 -20 -38 -40 -41 -41 -100
-39 -34 1 -70 0 -80 -2 -57 -11 -84 267 -106 1071 -21 768 -28 898 -54 970
-20 55 -25 61 -29 40z"/>
<path d="M0 860 c0 -20 7 -20 5405 -20 5398 0 5405 0 5405 20 0 20 -7 20
-5405 20 -5398 0 -5405 0 -5405 -20z"/>
<path d="M8820 505 l0 -295 35 0 35 0 0 295 0 295 -35 0 -35 0 0 -295z"/>
<path d="M7490 740 l0 -30 85 0 85 0 0 -250 0 -250 35 0 35 0 0 250 0 250 85
0 85 0 0 30 0 30 -205 0 -205 0 0 -30z"/>
<path d="M7985 602 c-52 -25 -81 -57 -100 -111 -63 -179 88 -344 253 -275 54
22 89 60 108 117 32 96 1 206 -72 257 -48 33 -134 38 -189 12z m160 -75 c60
-60 60 -169 1 -232 -29 -30 -40 -35 -78 -35 -77 0 -128 60 -128 150 0 90 51
150 127 150 38 0 51 -6 78 -33z"/>
<path d="M8445 602 c-52 -25 -81 -57 -100 -111 -63 -179 88 -344 253 -275 54
22 89 60 108 117 32 96 1 206 -72 257 -48 33 -134 38 -189 12z m160 -75 c60
-60 60 -169 1 -232 -29 -30 -40 -35 -78 -35 -77 0 -128 60 -128 150 0 90 51
150 127 150 38 0 51 -6 78 -33z"/>
<path d="M9065 606 c-43 -19 -66 -49 -72 -93 -7 -51 23 -88 96 -120 69 -31 91
-49 91 -79 0 -49 -96 -72 -160 -39 -26 13 -30 13 -30 1 0 -8 -3 -22 -6 -30 -8
-21 51 -46 108 -45 100 1 165 56 155 132 -7 50 -29 74 -97 104 -90 40 -111 71
-72 106 21 19 92 23 122 7 15 -8 20 -5 28 20 10 28 9 30 -26 40 -50 13 -101
12 -137 -4z"/>
</g>
</svg>
